# xmcd
#
# Track frame offsets:
#	150
#	15098
#	36546
#	54427
#	69618
#	87245
#	106266
#
# Disc length: 1667 seconds
#
# Revision: 4
# Processed by: cddbd v1.5.2PL0 Copyright (c) Steve Scherf et al.
# Submitted via: EasyCDDAExtractor 10.2.0.1
#
DISCID=50068107
DTITLE=薛凱琪 - Me
DYEAR=2005
DGENRE=Pop
TTITLE0=有隻雀仔
TTITLE1=尋找獨角獸
TTITLE2=水
TTITLE3=白色戀人
TTITLE4=愛
TTITLE5=你在那裡
TTITLE6=從金銀島寄來的信
EXTD=YEAR: 2005
EXTT0=
EXTT1=
EXTT2=
EXTT3=
EXTT4=電影「摯愛」主題曲
EXTT5=森美小儀歌劇團「亞卡比槍擊事件」插曲
EXTT6=電影「摯愛」宣傳曲
PLAYORDER=
